<svg width="25" height="24" viewBox="0 0 25 24" fill="none" xmlns="http://www.w3.org/2000/svg">
<path fill-rule="evenodd" clip-rule="evenodd" d="M0 2C0 0.89543 0.895431 0 2 0H22.1482C23.2528 0 24.1482 0.895431 24.1482 2V22C24.1482 23.1046 23.2528 24 22.1482 24H2C0.895429 24 0 23.1046 0 22V2ZM12.7639 17.409L11.9822 14.8203H8.80058L8.14523 17.437C8.14394 17.4408 8.14269 17.4445 8.14146 17.4481C8.10982 17.5409 8.0925 17.5917 7.90025 17.5978L6.01065 17.5993C5.88582 17.5978 5.87801 17.5509 5.90922 17.4558L8.83647 7.44133C8.91761 7.14018 8.93633 6.92485 8.90201 6.541C8.89264 6.43489 8.8942 6.37872 9.00343 6.37872L11.7762 6.38652C11.8074 6.38652 11.823 6.40056 11.8293 6.42085L15.1357 17.4495C15.1591 17.5525 15.1482 17.5993 14.9937 17.5978H12.9917C12.8841 17.5993 12.8045 17.5619 12.7639 17.409ZM9.28274 12.8074H11.578L10.3953 8.30733L9.28274 12.8074ZM17.1458 8.55551C17.7577 8.55551 18.2537 8.08116 18.2537 7.49602C18.2537 6.91088 17.7577 6.43654 17.1458 6.43654C16.5339 6.43654 16.0379 6.91088 16.0379 7.49602C16.0379 8.08116 16.5339 8.55551 17.1458 8.55551ZM18.0991 9.61346H16.1924C16.1432 9.61346 16.1034 9.65328 16.1034 9.7024V17.5308C16.1034 17.5799 16.1432 17.6197 16.1924 17.6197H18.0991C18.1482 17.6197 18.1881 17.5799 18.1881 17.5308V9.7024C18.1881 9.65328 18.1482 9.61346 18.0991 9.61346Z" fill="#93A0BB"/>
</svg>
