<svg width="30" height="24" viewBox="0 0 30 24" fill="none" xmlns="http://www.w3.org/2000/svg">
<path fill-rule="evenodd" clip-rule="evenodd" d="M6.092 0C4.41867 0 3.18 1.50533 3.236 3.136C3.28933 4.704 3.22 6.73467 2.72267 8.38933C2.336 9.672 1.74533 10.252 0.86 10.5107C0.334667 10.664 0 11.1827 0 11.7293V12.2693C0 12.8173 0.334667 13.3347 0.86 13.4893C1.74533 13.7493 2.33733 14.328 2.72267 15.6107C3.22 17.2667 3.28933 19.296 3.236 20.864C3.18 22.4947 4.41867 24 6.092 24H23.2427C24.916 24 26.1547 22.4947 26.1 20.864C26.0467 19.2973 26.116 17.2667 26.6133 15.6107C26.9987 14.328 27.5893 13.748 28.4733 13.4893C28.9987 13.336 29.3333 12.8173 29.3333 12.2707V11.7307C29.3333 11.1827 28.9987 10.6653 28.472 10.5107C27.588 10.2507 26.9973 9.672 26.612 8.38933C26.1147 6.73333 26.0453 4.704 26.0987 3.136C26.1547 1.50533 24.916 0 23.2427 0H6.092ZM10.24 5.37734V18.6667H15.7787C17.2067 18.6667 18.4013 18.3093 19.2387 17.6333C20.096 16.936 20.5507 15.928 20.5507 14.7213C20.5507 13.2773 19.752 12.1107 18.4747 11.564C19.34 10.9853 19.924 9.97868 19.924 8.90668C19.924 7.85334 19.516 6.96001 18.744 6.32134C17.9987 5.70401 16.9627 5.37734 15.7533 5.37734H10.24ZM17.6733 14.7253C17.6733 15.1293 17.6733 16.356 15.3733 16.356H13.0733V13.12H15.2587C17.4227 13.12 17.6733 14.036 17.6733 14.7253ZM17.0893 9.29734C17.0893 10.532 15.8773 10.7907 14.8613 10.7907L13.0747 10.792V7.93468H15.2773C16.48 7.93468 17.0893 8.39201 17.0893 9.29734Z" fill="#93A0BB"/>
</svg>
