<svg width="36" height="40" viewBox="0 0 36 40" fill="none" xmlns="http://www.w3.org/2000/svg">
<path d="M35.185 0.555C34.8683 0.201667 34.4167 0 33.9433 0H1.66667C1.19334 0 0.741669 0.201667 0.425003 0.555C0.108336 0.908333 -0.0416642 1.38 0.0100025 1.85L3.68 34.8883C3.75334 35.56 4.22834 36.1217 4.87834 36.3067L17.345 39.8683C17.495 39.9117 17.65 39.9333 17.8033 39.9333C17.9567 39.9333 18.1117 39.9117 18.2617 39.8683L30.7283 36.3067C31.3783 36.1217 31.8517 35.56 31.9267 34.8883L35.5983 1.85C35.6517 1.38 35.5017 0.908333 35.185 0.555ZM26.9983 16.79L26.255 28.9317L17.8583 31.6767L9.46167 28.9317L9.14334 23.125H13.3933L13.5 25.765L17.8583 27.2433L22.2167 25.765L22.535 21.015H13.1817L12.97 16.7917H22.7483L23.0667 12.5683H8.39834L8.08 8.34333H27.53L26.9983 16.79Z" fill="#93A0BB"/>
</svg>
