<svg width="22" height="24" viewBox="0 0 22 24" fill="none" xmlns="http://www.w3.org/2000/svg">
<path d="M1.11727 0C0.521256 0 0.0575628 0.518066 0.123381 1.11043L2.32594 20.9334C2.37074 21.3367 2.65474 21.6729 3.04482 21.7844L10.5159 23.9214C10.6955 23.9728 10.8858 23.9728 11.0654 23.9216L18.5547 21.7842C18.945 21.6728 19.2293 21.3365 19.2741 20.933L21.4766 1.11043C21.5424 0.518067 21.0787 0 20.4827 0H1.11727ZM16.4719 10.0172L16.0541 16.8295C16.029 17.2389 15.7564 17.5915 15.3665 17.7189L11.1434 19.0985C10.9416 19.1645 10.7241 19.1645 10.5223 19.0985L6.30352 17.7203C5.91142 17.5922 5.63821 17.2365 5.61557 16.8246L5.51424 14.9815C5.48274 14.4085 5.93888 13.9266 6.51273 13.9266H7.13159C7.66215 13.9266 8.09815 14.3453 8.11953 14.8755C8.13601 15.2838 8.40203 15.64 8.78894 15.7716L10.5109 16.3576C10.7196 16.4287 10.946 16.4287 11.1548 16.3578L12.8921 15.7676C13.2744 15.6377 13.5411 15.2907 13.5681 14.8878L13.6486 13.6905C13.6874 13.1131 13.2295 12.6234 12.6509 12.6234H8.90091C8.36817 12.6234 7.92897 12.2058 7.90217 11.6737L7.87164 11.0675C7.84287 10.4962 8.29834 10.0172 8.87038 10.0172H12.9196C13.4426 10.0172 13.8773 9.61409 13.9167 9.09251L13.9625 8.48626C14.0064 7.90595 13.5473 7.41094 12.9654 7.41094H5.92406C5.40105 7.41094 4.96638 7.00792 4.92691 6.4864L4.88139 5.88484C4.83747 5.30448 5.29652 4.80938 5.87854 4.80938H15.735C16.312 4.80938 16.7693 5.29638 16.733 5.87226L16.4719 10.0172Z" fill="#93A0BB"/>
</svg>
