<svg width="24" height="24" viewBox="0 0 24 24" fill="none" xmlns="http://www.w3.org/2000/svg">
<path fill-rule="evenodd" clip-rule="evenodd" d="M2 0C0.895508 0 0 0.895508 0 2V22C0 23.1045 0.895508 24 2 24H22C23.1045 24 24 23.1045 24 22V2C24 0.895508 23.1045 0 22 0H2ZM16.5913 13.5652H19.1353C19.2485 13.5652 19.3613 13.5876 19.4663 13.6311C19.5713 13.6748 19.6665 13.739 19.7471 13.8196C19.8271 13.9004 19.8911 13.9963 19.9346 14.1018C19.978 14.2075 20 14.3206 20 14.4348V18.1304C20 18.2446 19.978 18.3577 19.9346 18.4634C19.8911 18.5688 19.8271 18.6648 19.7471 18.7456C19.6665 18.8264 19.5713 18.8904 19.4663 18.9341C19.3613 18.9778 19.2485 19 19.1353 19H14.3784C14.2646 19 14.1523 18.9778 14.0474 18.9341C13.9712 18.9023 13.8999 18.8596 13.8354 18.8079C13.8115 18.7883 13.7886 18.7676 13.7666 18.7456C13.686 18.6648 13.6226 18.5688 13.5791 18.4634C13.5356 18.3577 13.5132 18.2446 13.5137 18.1304V14.4348C13.5132 14.3206 13.5356 14.2075 13.5791 14.1018C13.6079 14.0315 13.646 13.9653 13.6919 13.905C13.7148 13.875 13.7397 13.8464 13.7666 13.8196C13.8472 13.739 13.9424 13.6748 14.0474 13.6311C14.1523 13.5876 14.2646 13.5652 14.3784 13.5652H15.0933L12.7222 9.43481H11.2778L8.90576 13.5652H9.62158C9.73535 13.5652 9.84766 13.5876 9.95264 13.6311C10.0576 13.6748 10.1528 13.739 10.2334 13.8196C10.314 13.9004 10.3774 13.9963 10.4209 14.1018C10.4468 14.1646 10.4648 14.23 10.4756 14.2969C10.4829 14.3423 10.4863 14.3884 10.4863 14.4348V18.1304C10.4868 18.1956 10.4795 18.2605 10.4648 18.3237C10.4541 18.3713 10.4395 18.418 10.4209 18.4634C10.3774 18.5688 10.314 18.6648 10.2334 18.7456C10.1528 18.8264 10.0576 18.8904 9.95264 18.9341C9.84766 18.9778 9.73535 19 9.62158 19H4.86475C4.75146 19 4.63867 18.9778 4.53369 18.9341C4.50537 18.9224 4.47803 18.9092 4.45166 18.8945C4.37891 18.855 4.31201 18.8047 4.25293 18.7456C4.17285 18.6648 4.10889 18.5688 4.06543 18.4634C4.04443 18.4124 4.02832 18.3599 4.01758 18.3062C4.00586 18.2483 4 18.1895 4 18.1304V14.4348C4 14.3206 4.02197 14.2075 4.06543 14.1018C4.10889 13.9963 4.17285 13.9004 4.25293 13.8196C4.3335 13.739 4.42871 13.6748 4.53369 13.6311C4.63867 13.5876 4.75146 13.5652 4.86475 13.5652H7.40869L9.77979 9.43481H9.62158C9.50781 9.43481 9.39551 9.41235 9.29053 9.3689C9.22119 9.33984 9.15576 9.302 9.09619 9.25635C9.06592 9.23291 9.03711 9.20752 9.00977 9.18042C8.92969 9.09961 8.86572 9.00366 8.82227 8.89819C8.77881 8.79248 8.75684 8.67944 8.75684 8.56519V4.86963C8.75684 4.75537 8.77881 4.64233 8.82227 4.53662C8.86572 4.43115 8.92969 4.33521 9.00977 4.25439C9.09033 4.17358 9.18555 4.10962 9.29053 4.06592C9.39551 4.02222 9.50781 4 9.62158 4H14.3745C14.4883 4 14.6006 4.02222 14.7056 4.06592C14.8105 4.10962 14.9058 4.17358 14.9863 4.25439C15.0664 4.33521 15.1304 4.43115 15.1738 4.53662C15.2173 4.64233 15.2393 4.75537 15.2393 4.86963V8.56519C15.2393 8.61768 15.2344 8.66968 15.2251 8.72119C15.2144 8.78174 15.1973 8.84106 15.1738 8.89819C15.1523 8.94995 15.126 8.99951 15.0952 9.04614C15.0635 9.09424 15.0269 9.1394 14.9863 9.18042C14.9058 9.26099 14.8105 9.3252 14.7056 9.3689C14.6406 9.39575 14.5728 9.41455 14.5034 9.42505C14.4609 9.43164 14.418 9.43481 14.3745 9.43481H14.2202L16.5913 13.5652Z" fill="#93A0BB"/>
</svg>
