<svg width="24" height="24" viewBox="0 0 24 24" fill="none" xmlns="http://www.w3.org/2000/svg">
<path fill-rule="evenodd" clip-rule="evenodd" d="M12.5834 5.57143L12.7042 9.68684C12.7279 10.4978 13.3922 11.1429 14.2035 11.1429H18.1754H22.1474C22.9587 11.1429 23.6229 10.4978 23.6467 9.68684L23.7674 5.57143L23.8856 1.54398C23.9104 0.698687 23.2319 0 22.3862 0H18.1754H13.9646C13.119 0 12.4405 0.698687 12.4653 1.54398L12.5834 5.57143ZM3.97372 5.788C1.412 8.33429 -0.0999961 10.284 0.00514677 10.9034C0.0988611 11.4537 2.41543 14.2189 5.15372 17.0474C10.0806 22.1371 12.2417 24 13.2206 24C14.1794 24 22.1754 15.8046 22.1754 14.8217C22.1754 13.432 21.0371 13.1429 15.568 13.1429C10.0097 13.1429 10.2771 13.4743 10.0343 6.292C9.92172 2.95143 9.69486 1.97486 9.00115 1.84286C8.51258 1.74971 6.25029 3.52514 3.97372 5.788Z" fill="#93A0BB"/>
</svg>
