<svg width="24" height="24" viewBox="0 0 24 24" fill="none" xmlns="http://www.w3.org/2000/svg">
<path d="M16 15.997C18.208 15.997 19.998 14.207 19.998 11.999C19.998 9.79094 18.208 8.00098 16 8.00098C13.7919 8.00098 12.002 9.79094 12.002 11.999C12.002 14.207 13.7919 15.997 16 15.997Z" fill="#93A0BB"/>
<path d="M4 20.002C4 22.214 5.791 24 7.999 24C10.207 24 11.997 22.209 11.997 20.002V8.001H16L16.001 8.002C18.21 8.002 20 6.21 20 4.003C20 1.796 18.209 0 16.001 0H7.999C5.79 0 4 1.791 4 3.998C4 6.205 5.791 7.996 7.999 7.996C5.79 8.002 4 9.792 4 12C4 14.208 5.791 15.998 7.999 15.998C5.79 15.998 4 17.789 4 20.002Z" fill="#93A0BB"/>
</svg>
