<svg width="20" height="24" viewBox="0 0 20 24" fill="none" xmlns="http://www.w3.org/2000/svg">
<path d="M6.21424 4.32503L0 15.0606L3.10196 0.409644C3.20209 -0.0621015 3.83693 -0.151909 4.063 0.274417L6.21424 4.32503ZM7.36005 6.47214L8.59877 8.79473L2.89034 14.1935L7.36005 6.47214ZM11.9949 5.57407L10.1472 7.32892L8.57812 4.37664L9.58252 2.64863C9.78691 2.29662 10.2989 2.30901 10.4868 2.6703L11.9949 5.57407ZM19.1898 18.5703L10.1059 23.8555C9.95104 23.9587 9.76523 24 9.58974 24C9.41426 24 9.22845 23.9587 9.07361 23.8658L0.763876 19.0658L16.6267 4.03289C16.9271 3.74799 17.4226 3.91522 17.4907 4.32296L19.6853 17.5071C19.7576 17.9303 19.5614 18.3535 19.1898 18.5703Z" fill="#93A0BB"/>
</svg>
