<svg width="29" height="31" viewBox="0 0 29 31" fill="none" xmlns="http://www.w3.org/2000/svg">
<path d="M17.794 21.6867C22.0686 24.7687 25.362 25.3288 27.5342 26.4494C29.7064 27.5704 29.146 29.7415 25.502 30.3718C22.5588 30.9319 17.934 29.8113 14.8508 29.8113C11.7676 29.8113 4.90001 30.1617 3.07801 28.9011C0.975978 27.4304 1.88663 24.6985 1.88663 24.6985C2.4474 23.1581 3.84864 19.7257 3.42824 16.9243C3.00783 14.123 2.44706 12.5822 1.39605 9.99053C0.345028 7.39925 -0.425606 1.02591 0.555574 0.675526C1.53675 0.325139 1.25602 0.675538 2.51759 0.955435C3.77881 1.23533 5.1804 1.65585 7.91339 1.65585C10.6464 1.65585 13.6594 1.23532 14.7108 1.02557C15.7618 0.815473 16.6026 0.605046 16.252 2.77648C15.9018 4.94757 14.8508 9.00986 14.7806 12.1616C14.7108 15.3134 14.7108 18.9555 14.921 19.5858C15.1308 20.2161 16.6728 20.9165 17.794 21.6867Z" fill="#93A0BB"/>
</svg>
