<svg width="22" height="16" viewBox="0 0 22 16" fill="none" xmlns="http://www.w3.org/2000/svg">
<path fill-rule="evenodd" clip-rule="evenodd" d="M2.98188 0V6.17522C3.94186 5.05424 5.0926 4.49001 6.42715 4.49001C7.11446 4.49001 7.73007 4.61855 8.28219 4.8735C8.83594 5.12685 9.24997 5.45214 9.52951 5.84698C9.81067 6.24556 10.0007 6.68204 10.1033 7.16311C10.2052 7.64191 10.2562 8.38688 10.2562 9.39746V16H7.27363V10.0533C7.27363 8.87328 7.21953 8.12592 7.106 7.80824C6.99966 7.49702 6.78859 7.23039 6.50743 7.05192C6.22013 6.86199 5.86263 6.76827 5.43087 6.76827C4.93655 6.76827 4.49333 6.88922 4.10791 7.12975C3.71403 7.37187 3.43136 7.73335 3.25218 8.21669C3.06992 8.70082 2.97879 9.41562 2.98188 10.3619L2.97879 16H0V0H2.98188ZM14.7264 0V6.17522C15.6871 5.05424 16.8371 4.49001 18.1708 4.49001C18.8559 4.49001 19.4761 4.61855 20.029 4.8735C20.5804 5.12685 20.9945 5.45214 21.2725 5.84698C21.5531 6.24295 21.7483 6.69078 21.8463 7.16311C21.949 7.64191 22 8.38688 22 9.39746V16H19.0204V10.0533C19.0204 8.87328 18.964 8.12592 18.8505 7.80824C18.7441 7.49668 18.5325 7.22982 18.2504 7.05192C17.9662 6.86199 17.6055 6.76827 17.1738 6.76827C16.6803 6.76827 16.237 6.88922 15.8509 7.12975C15.4623 7.37187 15.1782 7.73335 14.9966 8.21669C14.8175 8.70082 14.7264 9.41562 14.7264 10.3619V16H11.7476V0H14.7264Z" fill="#93A0BB"/>
</svg>
