<svg width="36" height="40" viewBox="0 0 36 40" fill="none" xmlns="http://www.w3.org/2000/svg">
<path d="M35.185 0.555C34.8683 0.201667 34.4167 0 33.9433 0H1.66667C1.19334 0 0.741669 0.201667 0.425003 0.555C0.108336 0.908333 -0.0416642 1.38 0.0100025 1.85L3.68 34.8883C3.75334 35.56 4.22834 36.1217 4.87834 36.3067L17.345 39.8683C17.495 39.9117 17.65 39.9333 17.8033 39.9333C17.9567 39.9333 18.1117 39.9117 18.2617 39.8683L30.7283 36.3067C31.3783 36.1217 31.8517 35.56 31.9267 34.8883L35.5983 1.85C35.6517 1.38 35.5017 0.908333 35.185 0.555ZM27.1867 12.3833H12.3033L12.6567 16.62H26.8283L25.765 29.1367L17.81 31.6667L17.7317 31.6417L9.865 29.1333L9.435 24.0333H13.2883L13.4567 26.015L17.8517 26.9833L22.17 26.0133L22.6283 20.6583H9.145L8.10167 8.33333H27.5333L27.1867 12.3833Z" fill="#93A0BB"/>
</svg>
