<svg width="22" height="24" viewBox="0 0 22 24" fill="none" xmlns="http://www.w3.org/2000/svg">
<path d="M21.4766 1.11043C21.5424 0.518067 21.0787 0 20.4827 0H1.11727C0.521256 0 0.0575628 0.518066 0.123381 1.11043L2.32591 20.9332C2.37073 21.3366 2.65487 21.6728 3.04508 21.7843L10.5253 23.9215C10.7048 23.9728 10.8952 23.9728 11.0747 23.9215L18.5549 21.7843C18.9451 21.6728 19.2293 21.3366 19.2741 20.9332L21.4766 1.11043ZM16.6694 6.38474C16.6252 6.90214 16.1923 7.2996 15.673 7.2996H8.49101C7.90589 7.2996 7.44577 7.79975 7.49448 8.38284L7.54583 8.99763C7.58911 9.51585 8.02234 9.9144 8.54236 9.9144H15.2818C15.8675 9.9144 16.3278 10.4155 16.2783 10.999L15.7706 16.9754C15.7363 17.3784 15.4627 17.7211 15.0773 17.8437L10.8505 19.1883C10.8192 19.1982 10.7856 19.1981 10.7544 19.188L6.53469 17.8429C6.1493 17.7201 5.87586 17.3772 5.84192 16.9741L5.72409 15.5751C5.67496 14.9918 6.13517 14.4912 6.72056 14.4912H7.32993C7.71521 14.4912 8.03638 14.7861 8.06915 15.17C8.09678 15.4936 8.33164 15.7616 8.6488 15.8314L10.6115 16.2637C10.7546 16.2953 10.9029 16.295 11.0459 16.2628L12.7794 15.8734C13.2048 15.7778 13.5193 15.4175 13.5565 14.983L13.6842 13.4921C13.7342 12.9083 13.2738 12.4068 12.6879 12.4068H6.37287C5.85331 12.4068 5.42029 12.0089 5.37644 11.4912L4.90146 5.88441C4.85203 5.30092 5.31231 4.8 5.8979 4.8H15.7157C16.3016 4.8 16.762 5.30139 16.7121 5.88514L16.6694 6.38474Z" fill="#93A0BB"/>
</svg>
