<svg width="304" height="66" viewBox="0 0 304 66" fill="none" xmlns="http://www.w3.org/2000/svg">
<path d="M37.7966 12.5C38.989 12.5 40.0704 12.4306 41.0409 12.2917C42.0115 12.125 42.8295 11.9167 43.495 11.6667C45.1587 11.0278 45.9906 10.25 45.9906 9.33333C45.9906 8.36111 45.2696 7.56944 43.8277 6.95833C43.1068 6.65278 42.2749 6.43056 41.3321 6.29167C40.3893 6.125 39.2108 6.04167 37.7966 6.04167L35.6754 6H29.5611V12.5417H34.8019L37.7966 12.5ZM41.2489 18.5417H29.5611V29.5H8.14034V0H43.6613C51.37 0 57.1516 0.791666 61.0059 2.375C64.8603 3.93056 66.7874 6.16667 66.7874 9.08333C66.7874 12 64.68 14.3194 60.4652 16.0417C58.3023 16.875 55.6542 17.5 52.5208 17.9167C49.3874 18.3333 45.6301 18.5417 41.2489 18.5417Z" fill="#203562"/>
<path d="M69.8439 29.5V0H91.2647V29.5H69.8439Z" fill="#203562"/>
<path d="M94.609 7.29167V0.0416661H159.537V7.29167H137.783V29.5417H116.404V7.29167H94.609Z" fill="#203562"/>
<path d="M164.984 29.5V0H222.217V6.29167H186.405V11H219.597V17H186.405V22.7917H223.257V29.5H164.984Z" fill="#203562"/>
<path d="M267.396 6.70833C265.982 6.20833 263.445 5.95833 259.785 5.95833H250.052V11.9167H259.036C259.396 11.9167 260.27 11.875 261.656 11.7917C263.07 11.6806 264.083 11.5972 264.693 11.5417C266.162 11.4028 267.327 11.0833 268.187 10.5833C269.074 10.0833 269.518 9.52778 269.518 8.91667C269.518 7.94444 268.81 7.20833 267.396 6.70833ZM261.032 20.4583L259.785 19.5C258.814 18.8611 257.927 18.4167 257.123 18.1667C255.487 17.7222 253.74 17.5 251.882 17.5H250.052V29.5H228.548V0H264.152C270.641 0 275.673 0.25 279.25 0.75C282.828 1.22222 285.67 2.11111 287.777 3.41667C289.885 4.72222 290.938 6.30556 290.938 8.16667C290.938 9.80556 290.12 11.2083 288.484 12.375C286.876 13.5417 284.63 14.5278 281.746 15.3333C280.637 15.5833 279.528 15.8056 278.419 16C277.309 16.1667 275.923 16.3194 274.259 16.4583C275.757 16.6806 276.907 16.875 277.711 17.0417C278.516 17.1806 279.223 17.3611 279.833 17.5833C280.554 17.7778 281.691 18.2778 283.243 19.0833C283.992 19.5 284.616 19.875 285.115 20.2083C285.642 20.5139 286.016 20.7639 286.238 20.9583L296.553 29.5H272.429L261.032 20.4583Z" fill="#203562"/>
<path d="M7.44527 63.1667C3.00861 61.2778 0.526853 58.9028 0 56.0417L19.6738 55.5C20.062 56.8611 20.9355 57.9028 22.2942 58.625C24.3739 59.7639 27.4102 60.3333 31.4032 60.3333C32.8451 60.3333 34.1484 60.2639 35.313 60.125C36.5054 59.9861 37.4898 59.7639 38.2662 59.4583C39.819 58.9028 40.5954 58.2222 40.5954 57.4167C40.5954 56.6389 39.8467 55.9861 38.3494 55.4583C37.5175 55.1528 36.242 54.8611 34.5228 54.5833C32.8035 54.3056 30.5575 54.0417 27.7846 53.7917C18.7726 52.9306 12.3117 51.7778 8.40192 50.3333C4.49212 48.8611 2.53721 47.0278 2.53721 44.8333C2.53721 43.3611 3.50773 41.9722 5.44877 40.6667C7.41754 39.3611 10.44 38.3472 14.5162 37.625C18.5924 36.875 24.0689 36.5 30.9457 36.5C35.1605 36.5 38.9317 36.6667 42.2592 37C45.5867 37.3333 48.3319 37.8333 50.4947 38.5C54.9591 39.8611 57.635 42.0278 58.5223 45L39.0149 45.4583C38.5158 44.1806 37.4343 43.25 35.7706 42.6667C34.1068 42.0833 31.8192 41.7917 28.9076 41.7917C26.5229 41.7917 24.7066 42 23.4588 42.4167C22.2388 42.8889 21.6287 43.4306 21.6287 44.0417C21.6287 44.4583 22.1278 44.8611 23.1261 45.25C23.847 45.5278 24.776 45.7778 25.9129 46C27.0775 46.1944 28.4639 46.2917 30.0722 46.2917C39.1951 47.125 45.6976 47.9722 49.5797 48.8333C53.4617 49.6667 56.2762 50.7222 58.0232 52C59.7979 53.25 60.6852 54.6528 60.6852 56.2083C60.6852 58.0694 59.5067 59.7639 57.1497 61.2917C54.8205 62.7917 51.493 63.9444 47.1672 64.75C42.8415 65.5833 37.4759 66 31.0705 66C19.757 66 11.8819 65.0555 7.44527 63.1667Z" fill="#203562"/>
<path d="M63.6292 65.9583V36.4583H85.05V65.9583H63.6292Z" fill="#203562"/>
<path d="M91.5139 42.7917V36.5H151.95V42.375L113.226 59.625H153.364V66H87.8121V59.8333L126.12 42.7917H91.5139Z" fill="#203562"/>
<path d="M191.931 36.4583H192.098C203.162 36.4583 211.688 37.7361 217.678 40.2917C223.695 42.8472 226.704 46.4028 226.704 50.9583C226.704 54.2917 225.387 57.0278 222.752 59.1667C220.118 61.3056 216.319 62.9722 211.356 64.1667C208.86 64.75 205.921 65.1944 202.538 65.5C199.155 65.8056 195.619 65.9583 191.931 65.9583C189.159 65.9583 185.997 65.8194 182.448 65.5417C178.926 65.2639 176.126 64.875 174.046 64.375C171.44 63.7639 169.138 63.0694 167.142 62.2917C165.173 61.5139 163.454 60.5833 161.984 59.5C158.934 57.3056 157.409 54.5417 157.409 51.2083C157.409 46.5694 160.445 42.9583 166.518 40.375C172.618 37.7639 181.089 36.4583 191.931 36.4583ZM181.783 57.4583C184.334 58.7083 187.772 59.3333 192.098 59.3333C196.534 59.3333 199.959 58.7222 202.371 57.5C204.812 56.2778 206.032 54.0556 206.032 50.8333C206.032 49.4444 205.727 48.2778 205.117 47.3333C204.534 46.3611 203.578 45.5694 202.247 44.9583C201.193 44.4583 199.904 44.0278 198.378 43.6667C196.216 43.1389 194.122 42.875 192.098 42.875C190.157 42.875 188.036 43.1528 185.734 43.7083C183.959 44.125 182.656 44.5556 181.824 45C179.329 46.25 178.081 48.3333 178.081 51.25C178.081 54.0833 179.315 56.1528 181.783 57.4583Z" fill="#203562"/>
<path d="M255.211 66L229.048 36.5H251.384L266.982 57.7083L282.288 36.5H304L278.337 66H255.211Z" fill="#203562"/>
</svg>
