<svg width="22" height="16" viewBox="0 0 22 16" fill="none" xmlns="http://www.w3.org/2000/svg">
<path fill-rule="evenodd" clip-rule="evenodd" d="M21.3152 0H0.635253C-0.459247 0 0.104503 1.45635 0.701253 1.82898L9.86975 7.55768C10.2074 7.75214 10.5889 7.8503 10.9752 7.84213C11.3768 7.84213 11.7728 7.74827 12.0835 7.55768C12.2425 7.46019 14.4815 6.05988 16.7106 4.66577C18.8387 3.33485 20.9578 2.00958 21.2493 1.82898C21.846 1.45635 22.4125 0 21.3152 0ZM20.779 16C21.307 16 22 15.1751 22 14.5778V4.20693V4.19811C22.0001 3.93767 22.0001 3.60717 21.527 3.89405L12.0835 9.62272C11.6683 9.87595 11.3768 9.9072 10.9752 9.9072C10.5873 9.93173 10.2014 9.83243 9.86975 9.62272L0.473003 3.8912C-0.000136882 3.60714 -5.96424e-05 3.93489 1.3926e-06 4.19526L2.34659e-06 4.20408V14.5778C2.34659e-06 15.1751 0.693002 16 1.221 16H20.779Z" fill="#93A0BB"/>
</svg>
