<svg width="42" height="42" viewBox="0 0 42 42" fill="none" xmlns="http://www.w3.org/2000/svg">
<path d="M15.5979 28.6458C15.5979 29.5083 14.899 30.2083 14.0354 30.2083C13.1719 30.2083 12.4729 29.5083 12.4729 28.6458V14.0625C12.4729 13.3823 12.9135 12.7802 13.5615 12.5729C14.2125 12.3667 14.9177 12.6042 15.3104 13.1594L32.7865 37.851C38.1427 34.0719 41.6667 27.849 41.6667 20.8333C41.6667 9.375 32.2917 0 20.8333 0C9.375 0 0 9.375 0 20.8333C0 32.2917 9.375 41.6667 20.8333 41.6667C24.1583 41.6667 27.2979 40.8573 30.0937 39.4562L15.5979 18.975V28.6458ZM26.0146 13.0208C26.0146 12.1583 26.7135 11.4583 27.5771 11.4583C28.4406 11.4583 29.1396 12.1583 29.1396 13.0208V27.4375L26.0146 23.0344V13.0208Z" fill="#93A0BB"/>
</svg>
