<svg width="20" height="24" viewBox="0 0 20 24" fill="none" xmlns="http://www.w3.org/2000/svg">
<path d="M19.7558 5.0429L19.4132 4.72386L14.9264 0.546621L14.5838 0.227586C14.4286 0.0831724 14.2135 0 13.9935 0H1.09468C0.567563 0 0 0.379034 0 1.21076V16.1379V22.9808V23.1724C0 23.5188 0.374227 23.8564 0.8169 23.9628C0.839123 23.9681 0.860456 23.976 0.883568 23.9801C0.952902 23.993 1.02357 24 1.09468 24H18.9056C18.9767 24 19.0474 23.993 19.1167 23.9801C19.1398 23.976 19.1611 23.9681 19.1834 23.9628C19.626 23.8564 20.0003 23.5188 20.0003 23.1724V22.9808V16.1379V5.784C20.0003 5.46662 19.9594 5.23241 19.7558 5.0429ZM18.4158 4.96552H14.6669V1.47517L18.4158 4.96552Z" fill="#93A0BB"/>
<path d="M5.1732 17.144L5.1314 17.2349C5.24888 17.2889 5.33488 17.3536 5.39454 17.4268C5.45718 17.5042 5.49639 17.5824 5.51559 17.6616C5.537 17.7522 5.54702 17.8285 5.54702 17.8916C5.54702 18.0667 5.52298 18.2066 5.47903 18.3153C5.43282 18.4283 5.37543 18.5099 5.30835 18.5662C5.23562 18.6273 5.15691 18.6706 5.07188 18.6969C4.98246 18.7244 4.89239 18.7384 4.80239 18.7384H4.14669V17.1556H4.66471C4.86725 17.1556 5.02075 17.1841 5.13154 17.2349L5.1732 17.144ZM5.1732 17.144C5.04457 17.0851 4.87524 17.0556 4.66471 17.0556H4.14669L5.61285 17.6384C5.58974 17.5428 5.54301 17.4513 5.47216 17.3637C5.40081 17.2762 5.30133 17.203 5.1732 17.144ZM5.94321 16.7855L5.94307 16.7854C5.76597 16.6563 5.56644 16.5593 5.34522 16.4955C5.12575 16.4317 4.90335 16.4 4.67878 16.4H3.22266H3.12266V16.5V21V21.1H3.22266H4.04719H4.14719V21V19.4757H4.65868C4.93256 19.4757 5.18608 19.4402 5.41681 19.3675C5.64659 19.295 5.84605 19.1918 6.01288 19.0569C6.18077 18.9211 6.3111 18.7531 6.40473 18.5546L6.40482 18.5544C6.49862 18.3544 6.54492 18.1334 6.54492 17.8921C6.54492 17.6596 6.48891 17.4475 6.37612 17.2577C6.26587 17.0722 6.12082 16.9154 5.94321 16.7855Z" fill="#F5F5F5" stroke="#F5F5F5" stroke-width="0.2"/>
<path d="M12.1986 17.0808L12.1985 17.0807C11.9351 16.8725 11.6069 16.7071 11.2157 16.5846C10.822 16.4612 10.3689 16.4 9.85793 16.4H8.05469H7.95469V16.5V21V21.1H8.05469H10.3208C10.401 21.1 10.5212 21.0925 10.6792 21.0782L10.6792 21.0781C10.8427 21.0633 11.0219 21.0299 11.216 20.9773C11.413 20.9244 11.6153 20.8454 11.8236 20.7411C12.0383 20.6334 12.2304 20.4865 12.4009 20.3008C12.5732 20.1132 12.7128 19.8826 12.8222 19.6109C12.934 19.3334 12.9881 19.0033 12.9881 18.6241C12.9881 18.3391 12.9218 18.0625 12.7914 17.7955L12.7912 17.7951C12.6585 17.5266 12.4607 17.2885 12.1986 17.0808ZM11.3524 19.9184L11.3523 19.9185C11.087 20.2066 10.6439 20.3623 9.99636 20.3623H9.12969V17.1551H9.59828C10.0586 17.1551 10.4266 17.2007 10.7056 17.2881C10.9892 17.3769 11.2072 17.4915 11.3643 17.6285C11.5235 17.7673 11.6266 17.9183 11.6802 18.0816C11.7364 18.255 11.7644 18.4299 11.7644 18.6062C11.7644 19.1936 11.6219 19.6261 11.3524 19.9184Z" fill="#F5F5F5" stroke="#F5F5F5" stroke-width="0.2"/>
<path d="M14.3995 21V21.1H14.4995H15.3524H15.4524V21V19.0729H17.5055H17.6055V18.9729V18.4722V18.3722H17.5055H15.4524V17.1556H17.7218H17.8218V17.0556V16.5V16.4H17.7218H14.4995H14.3995V16.5V21Z" fill="#F5F5F5" stroke="#F5F5F5" stroke-width="0.2"/>
</svg>
