<svg width="24" height="24" viewBox="0 0 24 24" fill="none" xmlns="http://www.w3.org/2000/svg">
<path d="M13.1967 0.00358409C8.7353 0.00358409 7.57778 3.39648 7.18881 5.36473C7.72305 5.1351 9.03991 4.80237 9.59758 4.80237H9.62101C10.9941 4.81175 11.4206 5.20071 11.6971 6.4707C11.8986 7.40328 12.0017 8.85604 11.997 9.60117C11.9923 11.232 11.5986 12.3567 11.3081 13.1112L11.2144 13.3549C11.1441 13.5564 11.0597 13.7439 10.9847 13.9173C10.9097 14.1 10.8441 14.2594 10.7973 14.4C11.0878 14.4656 11.3175 14.5593 11.4721 14.6249L11.5611 14.6671C11.5893 14.6811 11.6174 14.6905 11.6408 14.7093C12.1516 15.0186 11.997 15.7309 11.997 16.2932C11.997 16.7619 12.011 18.627 11.997 20.4031C12.0485 21.1717 12.2454 21.8184 12.4141 22.2917C12.6624 22.9572 13.2201 23.946 14.3964 23.9975C15.3243 24.0397 16.6645 23.5523 16.7958 21.6028V16.804C16.8848 15.2013 18.7218 14.564 19.1952 14.2125C19.1296 14.1235 18.8765 13.3408 18.6094 12.9238L18.5578 12.8254C18.5203 12.7316 18.4219 12.5629 18.3001 12.338C17.5924 11.0539 16.1116 7.75944 17.1238 6.07237C17.5643 5.33193 17.9955 4.90547 19.1952 4.80237C18.7078 3.41054 17.3581 0.0738792 13.1967 0.00358409ZM5.32366 0.00358409C3.07891 0.0879384 0 1.47977 0 6.01613C0 9.09036 2.0901 17.999 5.38927 17.999C5.53923 17.999 5.68919 17.9475 5.84384 17.8678C5.55329 17.6148 5.3424 17.2867 5.31429 16.8556C5.26274 15.9839 5.89539 15.37 7.25911 15.0232C7.32472 15.0139 7.6715 14.9108 8.43537 14.4796C8.03235 14.3062 7.61058 14.0719 7.2638 13.7111C6.31247 12.7176 5.82978 11.3257 6.00786 10.0745C6.17657 8.85604 6.07816 7.66103 6.02661 7.02369L6.02192 6.96277L6.00786 6.75188L5.97974 6.31137L6.01723 5.13042C6.4062 3.13404 7.22162 1.58756 8.39788 0.51908C7.50748 0.228527 6.38745 -0.0339065 5.32366 0.00358409ZM17.9158 0.00827012C17.6862 0.0129573 17.4706 0.0317026 17.2597 0.0551339C18.4641 0.893985 19.5701 2.24833 20.3246 4.40872L20.3761 6.05831C20.3808 6.11454 20.3902 6.17078 20.3995 6.22702C20.437 6.43321 20.4839 6.71439 20.4464 7.05181C20.3995 7.43609 20.3527 7.82974 20.3386 8.22339C20.3293 8.61235 20.3808 8.99194 20.437 9.39497C20.5401 10.112 20.4839 10.8384 20.259 11.6163L19.9075 12.8254C20.0012 13.0316 20.0902 13.2424 20.1793 13.4627C20.198 13.5189 20.2168 13.5611 20.2308 13.5986L20.6245 14.1422C22.7427 12.2771 23.994 8.37335 23.994 4.35249C23.994 3.57456 23.7831 2.97471 23.5113 2.62792C21.9039 0.570628 19.6779 -0.0198472 17.9158 0.00827012ZM9.59758 6.00207C9.26017 6.00207 8.09796 6.27857 7.65745 6.46602L7.2263 6.64878C7.21693 6.65816 7.20756 6.66753 7.20287 6.6769C7.20756 6.74251 7.21693 6.82218 7.2263 6.92059C7.27785 7.60948 7.38095 8.88885 7.1935 10.2432C7.06697 11.1336 7.42781 12.1458 8.13545 12.8816C8.53847 13.3034 9.26017 13.5799 9.78503 13.697C9.81784 13.6127 9.84596 13.5424 9.88345 13.4486C9.94906 13.2893 10.024 13.1206 10.0943 12.9331L10.1881 12.6801C10.3989 12.1318 10.7926 11.1055 10.7973 9.59648C10.802 9.09973 10.7457 8.19527 10.6426 7.42203C10.6286 7.44077 10.6192 7.44077 10.6098 7.4642C10.4317 7.64228 10.1553 7.80162 9.85064 7.75476C9.35389 7.67509 8.9743 7.07055 8.99773 6.84561C9.02585 6.62535 9.4523 6.50819 9.94905 6.58786C10.1178 6.61598 10.2771 6.66753 10.4083 6.72377C10.4552 6.76126 10.4927 6.78469 10.5348 6.8128C10.5302 6.78469 10.5302 6.75188 10.5208 6.72377C10.4083 6.19421 10.3146 6.0958 10.3099 6.09111C10.3052 6.08643 10.1787 6.00676 9.59758 6.00207ZM19.1764 6.01613C18.5953 6.08643 18.4313 6.24107 18.2204 6.58318C18.6281 6.58318 18.9234 6.71908 18.9562 6.97214C18.989 7.18771 18.8062 7.39391 18.7265 7.47358C18.5578 7.63291 18.3469 7.7407 18.1361 7.76413C18.0986 7.7735 18.0611 7.7735 18.0189 7.7735C18.0095 7.7735 18.0048 7.76881 17.9955 7.76881C18.0658 8.75763 18.511 10.0932 19.1061 11.2836C19.2701 10.7118 19.3358 10.1542 19.2514 9.56367C19.1905 9.12785 19.1249 8.67796 19.1389 8.1859C19.1577 7.7407 19.2045 7.32361 19.2514 6.9159C19.2889 6.60192 19.167 6.31137 19.1764 6.01613ZM21.8101 15.0373C21.7164 15.0232 21.5852 15.0326 21.4258 15.0654C20.6714 15.2201 20.1699 15.2622 19.7997 15.2388C19.6685 15.3278 19.5326 15.4122 19.3639 15.5059C18.689 15.8761 18.0892 16.2604 18.0095 16.7994V17.4976C18.8015 17.5351 19.8606 17.043 20.4698 16.7619C21.618 16.2323 22.4803 15.1263 21.8101 15.0373ZM9.40076 15.3138C8.73998 15.7074 7.99486 16.0964 7.49811 16.1995C5.73605 16.6681 6.82797 17.2164 7.45125 17.2774C8.1167 17.4414 9.74754 17.8116 10.7973 16.954C10.7973 16.954 10.7973 16.954 10.7973 16.9493V16.2932C10.7973 16.1667 10.802 16.0402 10.8113 15.9043C10.8113 15.834 10.816 15.7402 10.816 15.6559C10.7364 15.6231 10.6379 15.595 10.5302 15.5668L9.40076 15.3138Z" fill="#93A0BB"/>
</svg>
