<svg width="24" height="24" viewBox="0 0 24 24" fill="none" xmlns="http://www.w3.org/2000/svg">
<path fill-rule="evenodd" clip-rule="evenodd" d="M0 2C0 0.89543 0.895431 0 2 0H22C23.1046 0 24 0.895431 24 2V22C24 23.1046 23.1046 24 22 24H2C0.89543 24 0 23.1046 0 22V2ZM17.7934 9.43542C16.0162 8.53353 12.9565 8.97043 12.9565 11.3235C12.9565 13.0758 14.1614 13.7654 15.6347 14.3443C17.7282 15.1666 15.6936 16.7208 13.1379 15.1136C13.1379 15.1136 13.0464 15.0683 13.0014 15.1136C12.9565 15.1588 12.9565 15.2041 12.9565 15.2509V16.9392C13.8497 17.3995 14.5166 17.6336 15.5478 17.6227C18.8743 17.5883 19.3535 14.3833 17.584 13.1507C17.263 12.926 16.4039 12.4781 16.1325 12.3736C14.7259 11.8337 14.8453 11.066 15.292 10.679C15.7851 10.2499 17.1529 10.899 17.7282 11.261C18.0772 11.4779 18.1346 11.208 18.133 10.9708L18.1283 9.84892C18.1283 9.5821 18.0369 9.56025 17.7934 9.43542ZM7.52095 12.2378V8.12783C7.52095 8.10755 7.59229 8.03733 7.6109 8.03733C9.34158 7.94839 10.3263 8.28855 10.4147 10.1485C10.5155 12.2831 8.73677 12.3283 7.52095 12.3283V12.2378ZM5.43359 6.53002V17.579H7.52095V14.0182C10.086 14.2023 12.3997 13.277 12.3997 10.2936C12.3997 9.09058 12.0275 7.87973 11.1451 7.14792C9.91227 6.12432 7.03091 6.35214 5.43359 6.53002Z" fill="#93A0BB"/>
</svg>
