<svg width="24" height="24" viewBox="0 0 24 24" fill="none" xmlns="http://www.w3.org/2000/svg">
<path d="M8.09125 11.566C8.33021 11.5228 8.57255 11.501 8.81538 11.5009L8.62025 11.5H15.1092C15.3906 11.5 15.6596 11.4614 15.9159 11.3904C17.1266 11.0552 18 9.9818 18 8.66142V3.20991C18 1.65791 16.6781 0.492161 15.1069 0.234535C14.1112 0.070535 12.6533 -0.00465262 11.6639 0.000222383C10.6746 0.00559739 9.72756 0.0879725 8.89656 0.234535C6.44644 0.660973 6 1.55797 6 3.20991V4.99998H12V5.99998H4.05125C1.8245 5.99998 0.0176252 8.66067 0.000437737 11.9526C0.000312737 11.9684 0 11.9842 0 12C0 12.5952 0.0587498 13.17 0.167812 13.7127C0.6655 16.1919 2.21569 18 4.05125 18H5V15.1291C5 13.4524 6.25913 11.8957 8.09125 11.566ZM8.7285 3.9376C8.129 3.9376 7.642 3.45104 7.642 2.84991C7.642 2.24591 8.12788 1.75491 8.7285 1.75491C9.32688 1.75491 9.81594 2.24585 9.81594 2.84991C9.816 3.45104 9.32788 3.9376 8.7285 3.9376Z" fill="#93A0BB"/>
<path d="M23.7469 9.90893C23.1737 7.62631 21.6896 6 19.9487 6H19V8.542C19 10.6617 17.6071 12.1966 15.9069 12.4596C15.7353 12.4864 15.5618 12.4999 15.3881 12.4999H8.89694C8.62173 12.4997 8.34763 12.5348 8.08138 12.6044C6.88625 12.9181 6 13.9125 6 15.2022V20.6539C6 22.2059 7.56106 23.118 9.09256 23.5633C10.9255 24.0965 12.9217 24.1926 15.1154 23.5633C16.5719 23.1471 18 22.3058 18 20.6539V19H12V18H19.9487C21.5262 18 22.8929 16.6647 23.5621 14.7157C23.8421 13.9002 24 12.9776 24 12C24 11.2645 23.9104 10.5601 23.7469 9.90893ZM15.2417 19.9262C15.8411 19.9262 16.328 20.4128 16.328 21.0137C16.328 21.6168 15.8411 22.1088 15.2417 22.1088C14.6431 22.1088 14.1542 21.6168 14.1542 21.0137C14.1542 20.4119 14.6421 19.9262 15.2417 19.9262Z" fill="#93A0BB"/>
</svg>
