<svg width="24" height="24" viewBox="0 0 24 24" fill="none" xmlns="http://www.w3.org/2000/svg">
<path fill-rule="evenodd" clip-rule="evenodd" d="M7.83301 6.61108V6.66602C7.83301 7.5 7.22314 8.16602 6.11182 8.16602H4.38916V5.11108H6.05518C7.16602 5.11108 7.83301 5.61108 7.83301 6.61108ZM2 0C0.895508 0 0 0.895508 0 2V22C0 23.1045 0.895508 24 2 24H22C23.1045 24 24 23.1045 24 22V2C24 0.895508 23.1045 0 22 0H2ZM6.22314 3.16699H2.22314V13.1121H4.38916V10.167H6.05518C8.27783 10.167 10.0562 8.94507 10.0562 6.66699V6.61206C10.0562 4.55591 8.61182 3.16699 6.22314 3.16699ZM2.27686 21H11.2769V19.5H2.27686V21ZM10.9448 8.16602C10.9448 11 13.1118 13.2781 16.0562 13.2229C17.9438 13.2229 19.1108 12.5559 20.1099 11.4441L18.7202 10.0549C17.9429 10.7771 17.2212 11.2219 16.1099 11.2219C14.397 11.2219 13.2368 9.8479 13.2231 8.13892C13.2368 6.42993 14.4521 5.05493 16.1099 5.05493C17.1099 5.05493 17.8882 5.44409 18.666 6.16602L20.0552 4.55591C19.1108 3.61108 18 3 16.1108 3C13.0562 3 10.9438 5.33301 10.9448 8.16602Z" fill="#93A0BB"/>
</svg>
