<svg width="27" height="25" viewBox="0 0 27 25" fill="none" xmlns="http://www.w3.org/2000/svg">
<path d="M13.4507 14.4593C14.8034 14.4593 15.9 13.3628 15.9 12.0101C15.9 10.6574 14.8034 9.56079 13.4507 9.56079C12.098 9.56079 11.0015 10.6574 11.0015 12.0101C11.0015 13.3628 12.098 14.4593 13.4507 14.4593Z" fill="#93A0BB"/>
<path d="M22.7525 7.97089C22.2798 7.79901 21.7857 7.62714 21.27 7.47674C21.3989 6.9611 21.5064 6.44547 21.5923 5.95131C22.0435 3.11531 21.5493 1.11721 20.1743 0.343758C19.7661 0.107424 19.3149 0 18.7993 0C17.2953 0 15.3832 1.11721 13.4495 2.9864C11.5159 1.11721 9.60374 0 8.0998 0C7.58416 0 7.13298 0.107424 6.72477 0.343758C5.34973 1.1387 4.85558 3.13679 5.30676 5.95131C5.3927 6.44547 5.50013 6.9611 5.62904 7.47674C5.1134 7.62714 4.61925 7.77753 4.14658 7.97089C1.46097 9.00217 0 10.4202 0 12.0101C0 13.5999 1.48246 15.0179 4.14658 16.0492C4.61925 16.2211 5.1134 16.393 5.62904 16.5434C5.50013 17.059 5.3927 17.5746 5.30676 18.0688C4.85558 20.9048 5.34973 22.9029 6.72477 23.6763C7.13298 23.9127 7.58416 24.0201 8.0998 24.0201C9.62522 24.0201 11.5374 22.9029 13.4495 21.0337C15.3832 22.9029 17.2953 24.0201 18.7993 24.0201C19.3149 24.0201 19.7661 23.9127 20.1743 23.6763C21.5493 22.8814 22.0435 20.8833 21.5923 18.0688C21.5064 17.5746 21.3989 17.059 21.27 16.5434C21.7857 16.393 22.2798 16.2426 22.7525 16.0492C25.4381 15.0179 26.8991 13.5999 26.8991 12.0101C26.8991 10.4202 25.4381 9.00217 22.7525 7.97089ZM19.5727 1.418C20.4536 1.93364 20.7544 3.52352 20.3891 5.77944C20.3247 6.23062 20.2173 6.70329 20.0884 7.19744C18.9711 6.93962 17.7895 6.76774 16.5434 6.66032C15.8129 5.62904 15.0609 4.70519 14.3089 3.86728C15.8988 2.29888 17.5102 1.22464 18.8208 1.22464C19.1001 1.22464 19.3579 1.28909 19.5727 1.418ZM17.1664 14.1585C16.7797 14.8461 16.3285 15.5336 15.8558 16.2211C15.0609 16.2855 14.266 16.307 13.4495 16.307C12.6116 16.307 11.8167 16.2855 11.0432 16.2211C10.5706 15.5336 10.1409 14.8461 9.75413 14.1585C9.34592 13.4495 8.95919 12.7191 8.61543 12.0101C8.95919 11.3011 9.34592 10.5706 9.75413 9.86156C10.1409 9.17405 10.592 8.48653 11.0647 7.79902C11.8597 7.73456 12.6546 7.71308 13.471 7.71308C14.3089 7.71308 15.1039 7.73456 15.8773 7.79902C16.35 8.48653 16.7797 9.17405 17.1664 9.86156C17.5746 10.5706 17.9614 11.3011 18.3051 12.0101C17.9399 12.7191 17.5746 13.4281 17.1664 14.1585ZM18.9497 13.4495C19.2719 14.2015 19.5298 14.932 19.7661 15.6625C19.0356 15.8344 18.2621 15.9633 17.4457 16.0707C17.7035 15.6625 17.9828 15.2328 18.2192 14.7816C18.477 14.3304 18.7133 13.8792 18.9497 13.4495ZM13.4495 19.2719C12.9339 18.7133 12.4397 18.1118 11.9671 17.4887C12.4612 17.5102 12.9554 17.5317 13.4495 17.5317C13.9437 17.5317 14.4378 17.5102 14.932 17.4887C14.4593 18.1118 13.9652 18.7133 13.4495 19.2719ZM9.45335 16.0492C8.63692 15.9418 7.86346 15.8129 7.13298 15.641C7.36931 14.932 7.62713 14.18 7.9494 13.4281C8.18574 13.8578 8.42207 14.3089 8.67989 14.7386C8.93771 15.2113 9.19553 15.6195 9.45335 16.0492ZM7.9494 10.5706C7.62713 9.81859 7.36931 9.08811 7.13298 8.35762C7.86346 8.18574 8.63692 8.05683 9.45335 7.94941C9.19553 8.35762 8.91622 8.78732 8.67989 9.2385C8.42207 9.68968 8.18574 10.1409 7.9494 10.5706ZM13.4495 4.74816C13.9652 5.30677 14.4593 5.90834 14.932 6.53141C14.4378 6.50992 13.9437 6.48844 13.4495 6.48844C12.9554 6.48844 12.4612 6.50992 11.9671 6.53141C12.4397 5.90834 12.9339 5.30677 13.4495 4.74816ZM18.2192 9.25999L17.4457 7.97089C18.2621 8.07832 19.0356 8.20723 19.7661 8.37911C19.5298 9.08811 19.2719 9.84008 18.9497 10.5921C18.7133 10.1409 18.477 9.68968 18.2192 9.25999ZM6.50992 5.77944C6.14467 3.52352 6.44546 1.93364 7.32634 1.418C7.54119 1.28909 7.79901 1.22464 8.07831 1.22464C9.36741 1.22464 10.9788 2.2774 12.5901 3.86728C11.8382 4.68371 11.0862 5.62904 10.3557 6.66032C9.10959 6.76774 7.92792 6.9611 6.81071 7.19744C6.6818 6.70329 6.59586 6.23062 6.50992 5.77944ZM1.20315 12.0101C1.20315 11.0003 2.42779 9.92602 4.57628 9.13108C5.00598 8.9592 5.47864 8.8088 5.95131 8.6799C6.29507 9.75414 6.72477 10.8928 7.2404 12.0315C6.72477 13.1702 6.27358 14.2875 5.95131 15.3617C2.9864 14.5023 1.20315 13.2132 1.20315 12.0101ZM7.32634 22.6021C6.44546 22.0865 6.14467 20.4966 6.50992 18.2407C6.57437 17.7895 6.6818 17.3168 6.81071 16.8227C7.92792 17.0805 9.10959 17.2524 10.3557 17.3598C11.0862 18.3911 11.8382 19.3149 12.5901 20.1528C11.0003 21.7212 9.38889 22.7955 8.07831 22.7955C7.79901 22.7955 7.54119 22.731 7.32634 22.6021ZM20.3891 18.2407C20.7544 20.4966 20.4536 22.0865 19.5727 22.6021C19.3579 22.731 19.1001 22.7955 18.8208 22.7955C17.5317 22.7955 15.9203 21.7427 14.3089 20.1528C15.0609 19.3364 15.8129 18.3911 16.5434 17.3598C17.7895 17.2524 18.9711 17.059 20.0884 16.8227C20.2173 17.3168 20.3032 17.7895 20.3891 18.2407ZM22.3228 14.889C21.8931 15.0609 21.4204 15.2113 20.9478 15.3402C20.604 14.266 20.1743 13.1273 19.6587 11.9886C20.1743 10.8499 20.6255 9.73266 20.9478 8.65841C23.9127 9.51781 25.6959 10.8069 25.6959 12.0101C25.6959 13.0198 24.4498 14.0941 22.3228 14.889Z" fill="#93A0BB"/>
</svg>
