<svg width="27" height="25" viewBox="0 0 27 25" fill="none" xmlns="http://www.w3.org/2000/svg">
<path d="M18.3618 16.7755C19.2925 16.6788 19.9986 15.8739 19.9665 14.9079C19.9345 13.942 19.132 13.1692 18.1692 13.1692H18.105C17.11 13.2014 16.3398 14.0385 16.3719 15.0367C16.404 15.5197 16.5965 15.9382 16.8854 16.228C15.7942 18.3854 14.1252 19.9631 11.6218 21.2832C9.9208 22.1848 8.15562 22.5068 6.39044 22.2814C4.94614 22.0882 3.82281 21.4443 3.11662 20.3816C2.08965 18.8039 1.9934 17.0974 2.85998 15.3909C3.46982 14.1673 4.43255 13.2657 5.04239 12.815C4.91402 12.3964 4.72141 11.6881 4.62516 11.1729C-0.0286263 14.5538 0.45284 19.1259 1.86502 21.2832C2.92411 22.8932 5.07451 23.8913 7.44953 23.8913C8.09138 23.8913 8.73324 23.8269 9.3752 23.666C13.4834 22.861 16.5966 20.4138 18.3618 16.7755ZM24.0105 12.7828C21.5713 9.91714 17.9767 8.33945 13.8685 8.33945H13.355C13.0661 7.75988 12.4563 7.37344 11.7823 7.37344H11.7181C10.7232 7.40566 9.95302 8.24278 9.98503 9.24101C10.0172 10.2069 10.8195 10.9797 11.7823 10.9797H11.8465C12.5526 10.9475 13.1624 10.4967 13.4191 9.88492H13.9969C16.4361 9.88492 18.7469 10.5933 20.8332 11.9778C22.4378 13.0404 23.5933 14.425 24.2351 16.0992C24.7808 17.4516 24.7486 18.7717 24.1709 19.8987C23.2723 21.6052 21.7639 22.539 19.774 22.539C18.4902 22.539 17.2706 22.1525 16.6286 21.8628C16.2756 22.1848 15.6337 22.6999 15.1843 23.022C16.5645 23.6659 17.9767 24.0201 19.3246 24.0201C22.4057 24.0201 24.6845 22.3135 25.5511 20.6071C26.4818 18.7395 26.4176 15.5197 24.0105 12.7828ZM7.70627 17.3227C7.73839 18.2887 8.54073 19.0614 9.50357 19.0614H9.5678C10.5628 19.0293 11.333 18.192 11.3009 17.1939C11.2688 16.2279 10.4664 15.4552 9.50357 15.4552H9.43943C9.3752 15.4552 9.27884 15.4552 9.21481 15.4873C7.89888 13.2979 7.35327 10.9153 7.54588 8.33935C7.67415 6.40743 8.31611 4.73308 9.43943 3.34851C10.3701 2.15716 12.1674 1.57759 13.3871 1.54547C16.7891 1.48103 18.2333 5.73121 18.3297 7.43778C18.7469 7.53434 19.453 7.75978 19.9345 7.92078C19.5492 2.7047 16.3398 0 13.2588 0C10.3701 0 7.70627 2.09292 6.64708 5.18396C5.17076 9.30535 6.13359 13.2657 7.93089 16.389C7.7705 16.6144 7.67415 16.9685 7.70627 17.3227Z" fill="#93A0BB"/>
</svg>
