<svg width="44" height="24" viewBox="0 0 44 24" fill="none" xmlns="http://www.w3.org/2000/svg">
<path d="M13.1495 15.9362C15.3086 15.9362 17.0588 14.1477 17.0588 11.9415C17.0588 9.73528 15.3086 7.94678 13.1495 7.94678C10.9904 7.94678 9.24019 9.73528 9.24019 11.9415C9.24019 14.1477 10.9904 15.9362 13.1495 15.9362ZM3.90931 23.9257C6.06837 23.9257 7.81862 22.1372 7.81862 19.931C7.81862 17.7247 6.06837 15.9362 3.90931 15.9362C1.75026 15.9362 0 17.7247 0 19.931C0 22.1372 1.75026 23.9257 3.90931 23.9257ZM39.2116 23.9257C41.3706 23.9257 43.1209 22.1372 43.1209 19.931C43.1209 17.7247 41.3706 15.9362 39.2116 15.9362C37.0525 15.9362 35.3023 17.7247 35.3023 19.931C35.3023 22.1372 37.0525 23.9257 39.2116 23.9257Z" fill="#93A0BB"/>
<path d="M26.3723 12.1099C26.2473 10.7753 26.1836 9.66444 25.1831 8.88372C23.9159 7.89498 22.4806 8.53653 20.7125 7.88441C18.9752 7.45494 17.6865 5.87873 17.6865 4C17.6865 1.79086 19.4683 0 21.6662 0C23.294 0 24.6936 0.982378 25.3101 2.38948C26.2536 4.22078 25.6404 6.08449 26.8258 7.02326C28.2295 8.13483 30.1219 7.32082 32.2334 8.374C32.9119 8.69258 33.4862 9.19789 33.8909 9.82415C34.2956 10.4504 34.5306 11.1976 34.5306 12C34.5306 13.8787 33.242 15.4549 31.5047 15.8844C29.7366 16.5365 28.3012 15.895 27.0341 16.8837C25.6092 17.9956 26.372 19.8557 25.2107 21.8206C24.5515 23.1144 23.2117 24 21.6662 24C19.4683 24 17.6865 22.2091 17.6865 20C17.6865 18.3952 18.6267 17.0112 19.9837 16.374C22.0953 15.3208 23.9877 16.1348 25.3913 15.0233C26.2011 14.382 26.3723 13.3928 26.3723 12.1099Z" fill="#93A0BB"/>
</svg>
