<svg width="32" height="25" viewBox="0 0 32 25" fill="none" xmlns="http://www.w3.org/2000/svg">
<path d="M26.9347 13.793C25.8429 13.7993 24.8975 14.0684 24.1045 14.4691C23.8118 13.8744 23.519 13.3549 23.4703 12.9668C23.4154 12.5162 23.3483 12.2407 23.4154 11.7025C23.4824 11.1641 23.7874 10.4005 23.7874 10.3379C23.7812 10.2815 23.7202 10.0061 23.092 9.99986C22.4639 9.9936 21.921 10.125 21.86 10.2941C21.799 10.4631 21.677 10.8511 21.5977 11.2517C21.4879 11.8401 20.3412 13.9245 19.6886 15.0198C19.4751 14.5942 19.2921 14.2186 19.2555 13.9181C19.2006 13.4675 19.1335 13.1921 19.2006 12.6538C19.2677 12.1155 19.5727 11.3519 19.5727 11.2893C19.5666 11.2329 19.5056 10.9575 18.8774 10.9513C18.2491 10.945 17.7063 11.0765 17.6454 11.2455C17.5844 11.4145 17.5173 11.8151 17.3831 12.2031C17.2549 12.5912 15.7301 16.0714 15.3336 16.979C15.1323 17.4422 14.9555 17.8115 14.8274 18.0619C14.6993 18.3122 14.8213 18.0807 14.8091 18.1057C14.6993 18.3185 14.6383 18.4374 14.6383 18.4374V18.4438C14.5529 18.6002 14.4614 18.7504 14.4187 18.7504C14.3882 18.7504 14.3272 18.331 14.4309 17.7552C14.6565 16.5471 15.2055 14.6631 15.1994 14.5943C15.1994 14.563 15.3031 14.2312 14.8456 14.0622C14.4004 13.8932 14.2418 14.1749 14.2052 14.1749C14.1686 14.1749 14.1381 14.275 14.1381 14.275C14.1381 14.275 14.6321 12.1532 13.1927 12.1532C12.29 12.1532 11.0457 13.1609 10.4297 14.0811C10.0393 14.3001 9.20978 14.7633 8.33147 15.2578C7.996 15.4456 7.64834 15.6459 7.31897 15.8274L7.25194 15.7522C5.50752 13.8431 2.28094 12.4911 2.41513 9.92475C2.46392 8.99211 2.78109 6.5322 8.61216 3.55276C13.388 1.11162 17.2123 1.78137 17.8771 3.27109C18.8225 5.39926 15.8338 9.35515 10.8689 9.92475C8.97813 10.1438 7.98387 9.39271 7.73385 9.11104C7.47158 8.81685 7.43498 8.80433 7.33739 8.86066C7.17881 8.94829 7.2764 9.21119 7.33739 9.36767C7.48378 9.76201 8.09372 10.4631 9.13061 10.8136C10.0394 11.1203 12.2596 11.2893 14.9433 10.2252C17.9503 9.02967 20.2986 5.71222 19.6094 2.93934C18.9079 0.116386 14.3456 -0.809995 10.0333 0.761096C7.46542 1.69999 4.6841 3.16468 2.6835 5.08629C0.304741 7.36469 -0.0734207 9.35515 0.0851633 10.1814C0.640268 13.1295 4.59871 15.0511 6.18455 16.472C6.10526 16.5158 6.03206 16.5596 5.96497 16.5972C5.17205 16.9977 2.15285 18.619 1.39653 20.3339C0.542617 22.2743 1.53072 23.6702 2.18945 23.858C4.22665 24.4401 6.31263 23.3948 7.44102 21.6735C8.56325 19.9522 8.42912 17.7176 7.91067 16.6973L7.89231 16.6598L8.51445 16.2842C8.91707 16.0401 9.31353 15.8148 9.66114 15.6207C9.46602 16.1652 9.32567 16.8099 9.25254 17.7488C9.16715 18.8506 9.6063 20.2776 10.1857 20.841C10.4419 21.085 10.7469 21.0913 10.936 21.0913C11.6069 21.0913 11.9119 20.5217 12.2473 19.8395C12.6621 19.007 13.0281 18.043 13.0281 18.043C13.0281 18.043 12.5706 20.6532 13.821 20.6532C14.2784 20.6532 14.7359 20.046 14.9433 19.7331V19.7393C14.9433 19.7393 14.9555 19.7205 14.9799 19.6767C15.0055 19.6379 15.0299 19.5982 15.0531 19.5579V19.5453C15.236 19.2199 15.6447 18.475 16.2546 17.2419C17.0414 15.652 17.7978 13.6616 17.7978 13.6616C17.7978 13.6616 17.871 14.1498 18.0966 14.951C18.2308 15.4268 18.5235 15.9462 18.7492 16.4532C18.5662 16.7161 18.4564 16.8664 18.4564 16.8664L18.4625 16.8727C18.3162 17.073 18.1515 17.2858 17.9808 17.4986C17.3586 18.2622 16.6145 19.1323 16.5169 19.3827C16.401 19.6768 16.4254 19.8959 16.6511 20.0712C16.8158 20.1964 17.1085 20.2214 17.4196 20.1964C17.9808 20.1588 18.3711 20.0149 18.5663 19.9272C18.8713 19.8146 19.2189 19.6455 19.5544 19.3952C20.1643 18.932 20.5364 18.2748 20.4998 17.3985C20.4815 16.9165 20.329 16.4408 20.1399 15.9902C20.1948 15.9088 20.2498 15.8274 20.3046 15.7398C21.2683 14.2938 22.0124 12.704 22.0124 12.704C22.0124 12.704 22.0856 13.1922 22.3113 13.9934C22.4271 14.4003 22.659 14.8448 22.8664 15.2829C21.9637 16.0403 21.3964 16.9166 21.2012 17.4925C20.8414 18.5566 21.1219 19.0385 21.6526 19.1512C21.8904 19.2013 22.232 19.0886 22.4881 18.9759C22.8053 18.8695 23.1896 18.6879 23.5434 18.4188C24.1533 17.9557 24.7389 17.3109 24.7084 16.4409C24.6901 16.0403 24.5864 15.646 24.4461 15.2704C25.2146 14.9449 26.2088 14.7571 27.4714 14.9136C30.1856 15.2391 30.7224 16.9792 30.6187 17.7053C30.5151 18.4314 29.9478 18.832 29.7587 18.9571C29.5696 19.0761 29.5086 19.12 29.5269 19.2075C29.5513 19.339 29.6367 19.3327 29.8014 19.3077C30.027 19.2701 31.2286 18.7131 31.2774 17.3737C31.3506 15.6521 29.7587 13.7743 26.9347 13.793ZM6.00157 21.0351C5.10496 22.0428 3.84238 22.4246 3.30564 22.0991C2.7262 21.7549 2.95181 20.2714 4.05586 19.2011C4.72679 18.5501 5.59901 17.9492 6.17235 17.5799C6.30044 17.4985 6.49562 17.3797 6.72739 17.2356C6.76399 17.2107 6.78839 17.1981 6.78839 17.1981C6.83108 17.1731 6.87988 17.1418 6.92867 17.1105C7.33733 18.6377 6.94697 19.9772 6.00157 21.0351ZM12.5584 16.4595C12.2473 17.2419 11.5886 19.2511 11.1921 19.1385C10.8505 19.0446 10.6432 17.5236 11.125 16.0213C11.369 15.2639 11.8874 14.3626 12.1924 14.012C12.6865 13.4487 13.2232 13.2609 13.3574 13.4925C13.516 13.793 12.7536 15.9713 12.5584 16.4595ZM17.9686 19.1134C17.8344 19.1824 17.7124 19.2324 17.6575 19.1949C17.6148 19.1698 17.7123 19.0759 17.7123 19.0759C17.7123 19.0759 18.3894 18.3311 18.6577 17.9868C18.8102 17.7866 18.9932 17.555 19.1884 17.292V17.3672C19.1884 18.2684 18.3467 18.8693 17.9686 19.1134ZM22.1405 18.137C22.0429 18.0619 22.0551 17.8303 22.3845 17.1042C22.5126 16.8163 22.8053 16.3343 23.3116 15.8774C23.3726 16.0651 23.4092 16.2466 23.403 16.4157C23.397 17.5424 22.6163 17.9617 22.1405 18.137Z" fill="#93A0BB"/>
</svg>
