<svg width="30" height="46" viewBox="0 0 30 46" fill="none" xmlns="http://www.w3.org/2000/svg">
<path d="M28.9552 10.8354L22.6948 0.53125C22.501 0.202083 22.149 0 21.7677 0H7.96354C7.58229 0 7.22812 0.202083 7.03646 0.53125L0.146875 12.2937C-0.0489583 12.6292 -0.0489583 13.0437 0.146875 13.3792L6.34896 24.4146C6.76354 25.1229 7.78854 25.1229 8.20312 24.4146L14.4073 13.0312C14.601 12.7021 14.9531 12.5 15.3344 12.5L28.026 12.4521C28.8573 12.4521 29.374 11.55 28.9552 10.8354ZM7.19062 45.7792H20.9948C21.376 45.7792 21.7281 45.5771 21.9219 45.2479L28.9573 33.4479C29.1531 33.1125 29.1531 32.6979 28.9573 32.3625L22.6094 21.3646C22.1948 20.6562 21.1698 20.6562 20.7552 21.3646L14.551 32.7479C14.3594 33.0771 14.0073 33.3021 13.626 33.3021H1.07813C0.248958 33.3021 -0.269792 34.1812 0.148958 34.8958L6.26354 45.2479C6.45729 45.5771 6.80937 45.7792 7.19062 45.7792Z" fill="#93A0BB"/>
</svg>
