<svg width="24" height="24" viewBox="0 0 24 24" fill="none" xmlns="http://www.w3.org/2000/svg">
<path d="M5.71992 1.95012L1.75081 5.77809L0.429199 0.42749L5.71992 1.95012ZM1.96466 6.65061L3.16652 11.5222L6.78919 8.03638L1.96466 6.65061ZM7.02871 7.21519L5.96372 2.90391L2.76447 5.98767L7.02871 7.21519ZM3.40603 12.4845L4.59078 17.2748L8.14502 13.8489L3.40603 12.4845ZM4.11603 11.7959L8.47435 13.0534L7.38798 8.65228L4.11603 11.7959ZM9.86867 18.7119L8.80369 14.4006L5.60017 17.4887L9.86867 18.7119ZM6.14335 23.5707L10.1766 19.6914L4.80463 18.1474L6.14335 23.5707ZM11.4127 3.59252L6.68226 2.22813L7.85845 7.00561L11.4127 3.59252ZM8.21345 8.43843L9.27844 12.7497L12.482 9.66167L8.21345 8.43843ZM12.7044 8.83619L11.6437 4.55058L8.45724 7.61723L12.7044 8.83619ZM13.0636 10.2904L9.80024 13.434L14.1457 14.6872L13.0636 10.2904ZM10.8353 19.0584L14.3853 15.6453L9.6591 14.2852L10.8353 19.0584ZM17.1012 5.23063L12.3579 3.86197L13.5427 8.66083L17.1012 5.23063ZM18.41 10.4914L17.345 6.18014L14.1415 9.26818L18.41 10.4914ZM15.0952 14.9609L18.7222 11.4709L13.8934 10.0851L15.0952 14.9609ZM18.0592 5.50436L19.3766 10.8464L23.3457 7.027L18.0592 5.50436Z" fill="#93A0BB"/>
<path d="M6.14501 24C6.10524 24 6.06503 23.9944 6.02654 23.9829C5.87941 23.9405 5.76692 23.8229 5.73014 23.6745L0.0125611 0.530053C-0.0242216 0.381639 0.0211154 0.225526 0.131036 0.119455C0.240956 0.0133841 0.400491 -0.0255373 0.545911 0.0168056L23.465 6.61546C23.6121 6.6578 23.725 6.77542 23.7618 6.92383C23.7986 7.07225 23.7532 7.22879 23.6433 7.33486L6.44141 23.8807C6.36058 23.9585 6.25408 24 6.14501 24ZM1.02066 1.04287L6.38282 22.7502L22.5159 7.23178L1.02066 1.04287Z" fill="#93A0BB"/>
</svg>
