<svg width="24" height="24" viewBox="0 0 24 24" fill="none" xmlns="http://www.w3.org/2000/svg">
<path fill-rule="evenodd" clip-rule="evenodd" d="M9.06873 1.59758L17.1924 0.00576965C17.4118 -0.0372069 17.5982 0.167071 17.5368 0.38028L16.4416 4.17766L12.0068 4.98601C11.9359 4.99885 11.8639 4.9994 11.7931 4.98657L8.67684 4.42951L8.82817 1.87274C8.83655 1.73711 8.93534 1.62381 9.06873 1.59758ZM8.67684 4.42951L0.70901 3.00518C0.206686 2.91532 -0.172289 3.45225 0.0805474 3.89541L11.3717 23.6964C11.6038 24.1033 12.191 24.1005 12.4198 23.692L23.4916 3.89373C23.74 3.44946 23.3593 2.91644 22.8587 3.00797L16.4416 4.17766L16.0175 5.64798C15.9561 5.8623 16.142 6.06602 16.3608 6.02361L18.6888 5.57431C18.9316 5.52742 19.123 5.7797 19.0119 6.00072L12.3924 19.2113L12.2724 19.3966C12.0933 19.674 11.663 19.4976 11.7299 19.1744L12.7976 14.0061C12.8434 13.7839 12.6352 13.5942 12.4187 13.66L11.0217 14.0842C10.8051 14.1501 10.5975 13.9609 10.6427 13.7393L11.3147 10.4491C11.3582 10.2359 11.1668 10.05 10.9552 10.0986L8.69366 10.6204C8.49943 10.6656 8.31692 10.511 8.32864 10.3123L8.67684 4.42951Z" fill="#93A0BB"/>
</svg>
