<svg width="22" height="25" viewBox="0 0 22 25" fill="none" xmlns="http://www.w3.org/2000/svg">
<path d="M21.3257 18.5107L11.511 24.0201V19.7289L17.617 16.3947L21.3257 18.5107ZM21.9985 17.9083V6.39583L18.4072 8.45469V15.8533L21.9966 17.9064L21.9985 17.9083ZM0.835005 18.5107L10.6401 24.0163V19.7289L4.53209 16.3947L0.835005 18.5107ZM0.162109 17.9083V6.39583L3.75345 8.45469V15.8533L0.162109 17.9083ZM0.58315 5.65044L10.6497 0V4.14823L4.19949 7.66546L4.14758 7.69406L0.58315 5.65044ZM21.5737 5.65044L11.511 0V4.14823L17.9612 7.66355L18.0131 7.69215L21.5775 5.65044H21.5737Z" fill="#93A0BB"/>
<path d="M10.6439 18.5613L4.5293 15.4494V9.29039L10.6439 12.5483V18.5613ZM11.5166 18.5613L17.6312 15.453V9.29039L11.5166 12.5483V18.5613ZM4.94421 8.58403L11.0802 5.45947L17.2162 8.58403L11.0802 11.8563L4.94421 8.58403Z" fill="#93A0BB"/>
</svg>
