<svg width="32" height="32" viewBox="0 0 32 32" fill="none" xmlns="http://www.w3.org/2000/svg">
<path d="M10.8648 7.68473C11.3016 7.68473 11.6978 7.64204 12.0534 7.55665C12.4089 7.45419 12.7086 7.32611 12.9524 7.17241C13.5619 6.77964 13.8667 6.30148 13.8667 5.73793C13.8667 5.14023 13.6026 4.65353 13.0743 4.27783C12.8102 4.08998 12.5054 3.95337 12.16 3.86798C11.8146 3.76552 11.3829 3.71429 10.8648 3.71429L10.0876 3.68867H7.84764V7.71034H9.76764L10.8648 7.68473ZM12.1296 11.399H7.84764V18.136H0V0H13.0134C15.8375 0 17.9556 0.486699 19.3677 1.4601C20.7797 2.41642 21.4858 3.79113 21.4858 5.58424C21.4858 7.37734 20.7137 8.80328 19.1696 9.86207C18.3772 10.3744 17.407 10.7586 16.2591 11.0148C15.1111 11.2709 13.7346 11.399 12.1296 11.399Z" fill="#203562"/>
<path d="M12.4952 30.2581C10.8698 29.0969 9.96058 27.6368 9.76756 25.8778L16.9752 25.5448C17.1174 26.3816 17.4374 27.022 17.9352 27.466C18.6971 28.1662 19.8095 28.5163 21.2724 28.5163C21.8006 28.5163 22.2781 28.4736 22.7047 28.3882C23.1416 28.3028 23.5022 28.1662 23.7866 27.9783C24.3555 27.6368 24.64 27.2184 24.64 26.7232C24.64 26.245 24.3657 25.8437 23.8171 25.5192C23.5124 25.3314 23.0451 25.1521 22.4152 24.9813C21.7854 24.8105 20.9625 24.6483 19.9466 24.4946C16.645 23.9652 14.278 23.2565 12.8457 22.3685C11.4133 21.4634 10.6971 20.3363 10.6971 18.9872C10.6971 18.0821 11.0526 17.2282 11.7638 16.4256C12.485 15.623 13.5923 14.9997 15.0857 14.5557C16.579 14.0946 18.5854 13.864 21.1047 13.864C22.6489 13.864 24.0305 13.9665 25.2495 14.1714C26.4686 14.3764 27.4743 14.6837 28.2667 15.0936C29.9022 15.9304 30.8825 17.2624 31.2076 19.0897L24.0609 19.3714C23.8781 18.5859 23.4819 18.0138 22.8724 17.6552C22.2628 17.2966 21.4247 17.1172 20.3581 17.1172C19.4844 17.1172 18.819 17.2453 18.3619 17.5015C17.9149 17.7918 17.6914 18.1248 17.6914 18.5005C17.6914 18.7566 17.8743 19.0043 18.24 19.2433C18.5041 19.4141 18.8444 19.5678 19.2609 19.7044C19.6876 19.824 20.1955 19.8837 20.7847 19.8837C24.127 20.3961 26.5092 20.9169 27.9314 21.4463C29.3536 21.9586 30.3848 22.6076 31.0248 23.3931C31.6749 24.1616 32 25.024 32 25.9803C32 27.1245 31.5683 28.1662 30.7048 29.1054C29.8514 30.0276 28.6324 30.7363 27.0476 31.2315C25.4628 31.7438 23.4971 32 21.1504 32C17.0057 32 14.1206 31.4194 12.4952 30.2581Z" fill="#203562"/>
</svg>
